<?xml version="1.0" encoding="UTF-8"?><svg id="Layer_1" xmlns="http://www.w3.org/2000/svg" viewBox="0 0 288.21 288.21"><rect width="288.21" height="288.21"/><path d="M79.44,222.69c-1.65,0-3.07-.6-4.27-1.8-1.2-1.2-1.8-2.62-1.8-4.27V71.59c0-1.65.6-3.07,1.8-4.27s2.62-1.8,4.27-1.8h35.47c2.99,0,5.16.67,6.51,2.02,1.35,1.35,2.24,2.4,2.69,3.14l37.94,62.19v-61.29c0-1.65.6-3.07,1.8-4.27,1.2-1.2,2.62-1.8,4.27-1.8h40.64c1.65,0,3.07.6,4.27,1.8,1.2,1.2,1.8,2.62,1.8,4.27v145.04c0,1.65-.6,3.07-1.8,4.27s-2.62,1.8-4.27,1.8h-35.47c-3,0-5.16-.71-6.51-2.13-1.35-1.42-2.25-2.43-2.69-3.03l-37.94-57.25v56.35c0,1.65-.6,3.07-1.8,4.27s-2.62,1.8-4.27,1.8h-40.64Z" style="fill:#00e5ff;"/></svg>