<?xml version="1.0" encoding="UTF-8"?>
<svg id="Layer_1" xmlns="http://www.w3.org/2000/svg" version="1.1" viewBox="0 0 288.2 288.2">
  <!-- Generator: Adobe Illustrator 30.0.0, SVG Export Plug-In . SVG Version: 2.1.1 Build 123)  -->
  <defs>
    <style>
      .st0 {
        fill: none;
        stroke: #000;
        stroke-miterlimit: 10;
        stroke-width: 8px;
      }
    </style>
  </defs>
  <path d="M60.2,246.1c-2.1,0-4-.8-5.5-2.3-1.6-1.6-2.3-3.4-2.3-5.5V50c0-2.1.8-4,2.3-5.5s3.4-2.3,5.5-2.3h46.1c3.9,0,6.7.9,8.5,2.6,1.7,1.7,2.9,3.1,3.5,4.1l49.3,80.7V50c0-2.1.8-4,2.3-5.5,1.6-1.6,3.4-2.3,5.5-2.3h52.8c2.1,0,4,.8,5.5,2.3,1.6,1.6,2.3,3.4,2.3,5.5v188.3c0,2.1-.8,4-2.3,5.5s-3.4,2.3-5.5,2.3h-46.1c-3.9,0-6.7-.9-8.5-2.8-1.7-1.8-2.9-3.2-3.5-3.9l-49.3-74.3v73.2c0,2.1-.8,4-2.3,5.5s-3.4,2.3-5.5,2.3h-52.8Z"/>
  <rect class="st0" x="4" y="4" width="280.2" height="280.2" rx="14.2" ry="14.2"/>
</svg>