<?xml version="1.0" encoding="UTF-8"?>
<svg id="Layer_1" xmlns="http://www.w3.org/2000/svg" version="1.1" viewBox="0 0 288.2 288.2">
  <!-- Generator: Adobe Illustrator 30.0.0, SVG Export Plug-In . SVG Version: 2.1.1 Build 123)  -->
  <defs>
    <style>
      .st0 {
        fill: #00e5ff;
      }
    </style>
  </defs>
  <rect x="36.2" y="36.2" width="215.8" height="215.8" rx="10.9" ry="10.9"/>
  <path class="st0" d="M79.4,222.7c-1.6,0-3.1-.6-4.3-1.8-1.2-1.2-1.8-2.6-1.8-4.3V71.6c0-1.6.6-3.1,1.8-4.3s2.6-1.8,4.3-1.8h35.5c3,0,5.2.7,6.5,2,1.3,1.3,2.2,2.4,2.7,3.1l37.9,62.2v-61.3c0-1.6.6-3.1,1.8-4.3,1.2-1.2,2.6-1.8,4.3-1.8h40.6c1.6,0,3.1.6,4.3,1.8,1.2,1.2,1.8,2.6,1.8,4.3v145c0,1.6-.6,3.1-1.8,4.3s-2.6,1.8-4.3,1.8h-35.5c-3,0-5.2-.7-6.5-2.1-1.3-1.4-2.2-2.4-2.7-3l-37.9-57.3v56.4c0,1.6-.6,3.1-1.8,4.3s-2.6,1.8-4.3,1.8h-40.6Z"/>
</svg>